<svg xmlns="http://www.w3.org/2000/svg" width="518.87347mm" height="100mm" viewBox="0 0 518.87347 100"><defs><linearGradient id="b" x1="-0.092540599" x2="0.991934" y1="0" y2="0" gradientTransform="matrix(11.6545 0 0 11.6545 133.37 262.248)" gradientUnits="userSpaceOnUse"><stop offset="0" style="stop-color:#0075c2;stop-opacity:1"/><stop offset="0.125" style="stop-color:#0075c2;stop-opacity:1"/><stop offset="0.1875" style="stop-color:#0075c2;stop-opacity:1"/><stop offset="0.203125" style="stop-color:#0075c2;stop-opacity:1"/><stop offset="0.210938" style="stop-color:#0076c2;stop-opacity:1"/><stop offset="0.21875" style="stop-color:#0076c3;stop-opacity:1"/><stop offset="0.222656" style="stop-color:#0076c3;stop-opacity:1"/><stop offset="0.226563" style="stop-color:#0077c3;stop-opacity:1"/><stop offset="0.234375" style="stop-color:#0077c3;stop-opacity:1"/><stop offset="0.242188" style="stop-color:#0077c4;stop-opacity:1"/><stop offset="0.25" style="stop-color:#0078c4;stop-opacity:1"/><stop offset="0.257813" style="stop-color:#0078c5;stop-opacity:1"/><stop offset="0.265625" style="stop-color:#0079c5;stop-opacity:1"/><stop offset="0.273438" style="stop-color:#0079c6;stop-opacity:1"/><stop offset="0.28125" style="stop-color:#007ac6;stop-opacity:1"/><stop offset="0.285156" style="stop-color:#007ac7;stop-opacity:1"/><stop offset="0.289063" style="stop-color:#007bc7;stop-opacity:1"/><stop offset="0.296875" style="stop-color:#007bc7;stop-opacity:1"/><stop offset="0.304688" style="stop-color:#007cc8;stop-opacity:1"/><stop offset="0.308594" style="stop-color:#007cc8;stop-opacity:1"/><stop offset="0.3125" style="stop-color:#007dc9;stop-opacity:1"/><stop offset="0.320313" style="stop-color:#007dc9;stop-opacity:1"/><stop offset="0.328125" style="stop-color:#007eca;stop-opacity:1"/><stop offset="0.332031" style="stop-color:#007fca;stop-opacity:1"/><stop offset="0.335938" style="stop-color:#007fcb;stop-opacity:1"/><stop offset="0.34375" style="stop-color:#007fcb;stop-opacity:1"/><stop offset="0.347656" style="stop-color:#0080cb;stop-opacity:1"/><stop offset="0.351563" style="stop-color:#0081cc;stop-opacity:1"/><stop offset="0.355469" style="stop-color:#0081cc;stop-opacity:1"/><stop offset="0.359375" style="stop-color:#0081cd;stop-opacity:1"/><stop offset="0.367188" style="stop-color:#0082cd;stop-opacity:1"/><stop offset="0.375" style="stop-color:#0083ce;stop-opacity:1"/><stop offset="0.378906" style="stop-color:#0083ce;stop-opacity:1"/><stop offset="0.382813" style="stop-color:#0084cf;stop-opacity:1"/><stop offset="0.390625" style="stop-color:#0084cf;stop-opacity:1"/><stop offset="0.398438" style="stop-color:#0085d0;stop-opacity:1"/><stop offset="0.40625" style="stop-color:#0086d1;stop-opacity:1"/><stop offset="0.414063" style="stop-color:#0087d2;stop-opacity:1"/><stop offset="0.417969" style="stop-color:#0087d2;stop-opacity:1"/><stop offset="0.421875" style="stop-color:#0088d3;stop-opacity:1"/><stop offset="0.425781" style="stop-color:#0088d3;stop-opacity:1"/><stop offset="0.429688" style="stop-color:#0089d3;stop-opacity:1"/><stop offset="0.433594" style="stop-color:#0089d4;stop-opacity:1"/><stop offset="0.4375" style="stop-color:#008ad4;stop-opacity:1"/><stop offset="0.445313" style="stop-color:#008ad5;stop-opacity:1"/><stop offset="0.449219" style="stop-color:#008bd5;stop-opacity:1"/><stop offset="0.453125" style="stop-color:#008cd6;stop-opacity:1"/><stop offset="0.457031" style="stop-color:#008cd6;stop-opacity:1"/><stop offset="0.460938" style="stop-color:#008dd6;stop-opacity:1"/><stop offset="0.46875" style="stop-color:#008dd6;stop-opacity:1"/><stop offset="0.472656" style="stop-color:#008ed4;stop-opacity:1"/><stop offset="0.476563" style="stop-color:#008ed4;stop-opacity:1"/><stop offset="0.480469" style="stop-color:#008fd3;stop-opacity:1"/><stop offset="0.484375" style="stop-color:#008fd2;stop-opacity:1"/><stop offset="0.488281" style="stop-color:#008fd2;stop-opacity:1"/><stop offset="0.492188" style="stop-color:#0090d2;stop-opacity:1"/><stop offset="0.496094" style="stop-color:#0090d1;stop-opacity:1"/><stop offset="0.5" style="stop-color:#0091d0;stop-opacity:1"/><stop offset="0.503906" style="stop-color:#0091cf;stop-opacity:1"/><stop offset="0.507813" style="stop-color:#0091cf;stop-opacity:1"/><stop offset="0.515625" style="stop-color:#0092ce;stop-opacity:1"/><stop offset="0.519531" style="stop-color:#0092cd;stop-opacity:1"/><stop offset="0.523438" style="stop-color:#0093cc;stop-opacity:1"/><stop offset="0.527344" style="stop-color:#0093cc;stop-opacity:1"/><stop offset="0.53125" style="stop-color:#0094cb;stop-opacity:1"/><stop offset="0.535156" style="stop-color:#0094ca;stop-opacity:1"/><stop offset="0.539063" style="stop-color:#0095c9;stop-opacity:1"/><stop offset="0.542969" style="stop-color:#0095c9;stop-opacity:1"/><stop offset="0.546875" style="stop-color:#0095c8;stop-opacity:1"/><stop offset="0.550781" style="stop-color:#0096c7;stop-opacity:1"/><stop offset="0.554687" style="stop-color:#0097c7;stop-opacity:1"/><stop offset="0.558594" style="stop-color:#0097c6;stop-opacity:1"/><stop offset="0.5625" style="stop-color:#0097c6;stop-opacity:1"/><stop offset="0.566406" style="stop-color:#0098c5;stop-opacity:1"/><stop offset="0.570313" style="stop-color:#0098c4;stop-opacity:1"/><stop offset="0.574219" style="stop-color:#0098c4;stop-opacity:1"/><stop offset="0.578125" style="stop-color:#0099c3;stop-opacity:1"/><stop offset="0.582031" style="stop-color:#0099c2;stop-opacity:1"/><stop offset="0.585938" style="stop-color:#009ac1;stop-opacity:1"/><stop offset="0.589844" style="stop-color:#009ac1;stop-opacity:1"/><stop offset="0.59375" style="stop-color:#009ac0;stop-opacity:1"/><stop offset="0.597656" style="stop-color:#009bbf;stop-opacity:1"/><stop offset="0.601562" style="stop-color:#009bbe;stop-opacity:1"/><stop offset="0.605469" style="stop-color:#009bbd;stop-opacity:1"/><stop offset="0.609375" style="stop-color:#009cbd;stop-opacity:1"/><stop offset="0.613281" style="stop-color:#009cbc;stop-opacity:1"/><stop offset="0.617188" style="stop-color:#009dbb;stop-opacity:1"/><stop offset="0.621094" style="stop-color:#009dba;stop-opacity:1"/><stop offset="0.625" style="stop-color:#009dba;stop-opacity:1"/><stop offset="0.628906" style="stop-color:#009eb9;stop-opacity:1"/><stop offset="0.632813" style="stop-color:#009eb8;stop-opacity:1"/><stop offset="0.636719" style="stop-color:#009eb7;stop-opacity:1"/><stop offset="0.640625" style="stop-color:#009fb7;stop-opacity:1"/><stop offset="0.644531" style="stop-color:#009fb6;stop-opacity:1"/><stop offset="0.648438" style="stop-color:#00a0b5;stop-opacity:1"/><stop offset="0.652344" style="stop-color:#00a0b4;stop-opacity:1"/><stop offset="0.65625" style="stop-color:#00a0b3;stop-opacity:1"/><stop offset="0.660156" style="stop-color:#00a1b2;stop-opacity:1"/><stop offset="0.664063" style="stop-color:#00a1b1;stop-opacity:1"/><stop offset="0.667969" style="stop-color:#00a1b0;stop-opacity:1"/><stop offset="0.671875" style="stop-color:#00a2b0;stop-opacity:1"/><stop offset="0.675781" style="stop-color:#00a2af;stop-opacity:1"/><stop offset="0.679687" style="stop-color:#00a3ae;stop-opacity:1"/><stop offset="0.683594" style="stop-color:#00a3ad;stop-opacity:1"/><stop offset="0.6875" style="stop-color:#00a4ac;stop-opacity:1"/><stop offset="0.691406" style="stop-color:#00a4ac;stop-opacity:1"/><stop offset="0.695313" style="stop-color:#00a4ab;stop-opacity:1"/><stop offset="0.699219" style="stop-color:#00a5aa;stop-opacity:1"/><stop offset="0.703125" style="stop-color:#00a5a8;stop-opacity:1"/><stop offset="0.707031" style="stop-color:#00a5a8;stop-opacity:1"/><stop offset="0.710938" style="stop-color:#00a6a7;stop-opacity:1"/><stop offset="0.714844" style="stop-color:#00a6a6;stop-opacity:1"/><stop offset="0.71875" style="stop-color:#00a7a5;stop-opacity:1"/><stop offset="0.722656" style="stop-color:#00a7a4;stop-opacity:1"/><stop offset="0.726562" style="stop-color:#00a7a3;stop-opacity:1"/><stop offset="0.730469" style="stop-color:#00a8a2;stop-opacity:1"/><stop offset="0.734375" style="stop-color:#00a8a1;stop-opacity:1"/><stop offset="0.738281" style="stop-color:#00a8a0;stop-opacity:1"/><stop offset="0.742188" style="stop-color:#00a9a0;stop-opacity:1"/><stop offset="0.746094" style="stop-color:#00a99e;stop-opacity:1"/><stop offset="0.75" style="stop-color:#00aa9d;stop-opacity:1"/><stop offset="0.753906" style="stop-color:#00aa9c;stop-opacity:1"/><stop offset="0.757813" style="stop-color:#00aa9c;stop-opacity:1"/><stop offset="0.761719" style="stop-color:#00ab9b;stop-opacity:1"/><stop offset="0.765625" style="stop-color:#00ab99;stop-opacity:1"/><stop offset="0.769531" style="stop-color:#00ab99;stop-opacity:1"/><stop offset="0.773438" style="stop-color:#00ac98;stop-opacity:1"/><stop offset="0.777344" style="stop-color:#00ac96;stop-opacity:1"/><stop offset="0.78125" style="stop-color:#00ac95;stop-opacity:1"/><stop offset="0.785156" style="stop-color:#00ac93;stop-opacity:1"/><stop offset="0.789063" style="stop-color:#00ac92;stop-opacity:1"/><stop offset="0.792969" style="stop-color:#00ad90;stop-opacity:1"/><stop offset="0.796875" style="stop-color:#00ad8f;stop-opacity:1"/><stop offset="0.800781" style="stop-color:#00ad8d;stop-opacity:1"/><stop offset="0.804687" style="stop-color:#00ad8b;stop-opacity:1"/><stop offset="0.808594" style="stop-color:#00ad8a;stop-opacity:1"/><stop offset="0.8125" style="stop-color:#00ae88;stop-opacity:1"/><stop offset="0.816406" style="stop-color:#00ae87;stop-opacity:1"/><stop offset="0.820313" style="stop-color:#00ae85;stop-opacity:1"/><stop offset="0.824219" style="stop-color:#00ae84;stop-opacity:1"/><stop offset="0.828125" style="stop-color:#00af82;stop-opacity:1"/><stop offset="0.832031" style="stop-color:#02af80;stop-opacity:1"/><stop offset="0.835938" style="stop-color:#03af7f;stop-opacity:1"/><stop offset="0.839844" style="stop-color:#0caf7d;stop-opacity:1"/><stop offset="0.84375" style="stop-color:#16af7b;stop-opacity:1"/><stop offset="0.847656" style="stop-color:#1baf79;stop-opacity:1"/><stop offset="0.851562" style="stop-color:#21b078;stop-opacity:1"/><stop offset="0.855469" style="stop-color:#25b076;stop-opacity:1"/><stop offset="0.859375" style="stop-color:#29b074;stop-opacity:1"/><stop offset="0.863281" style="stop-color:#2cb073;stop-opacity:1"/><stop offset="0.867188" style="stop-color:#2fb171;stop-opacity:1"/><stop offset="0.871094" style="stop-color:#32b16f;stop-opacity:1"/><stop offset="0.875" style="stop-color:#35b16d;stop-opacity:1"/><stop offset="0.878906" style="stop-color:#37b16c;stop-opacity:1"/><stop offset="0.882813" style="stop-color:#3ab26a;stop-opacity:1"/><stop offset="0.886719" style="stop-color:#3cb268;stop-opacity:1"/><stop offset="0.890625" style="stop-color:#3eb267;stop-opacity:1"/><stop offset="0.894531" style="stop-color:#40b265;stop-opacity:1"/><stop offset="0.898438" style="stop-color:#42b364;stop-opacity:1"/><stop offset="0.902344" style="stop-color:#45b362;stop-opacity:1"/><stop offset="0.90625" style="stop-color:#47b360;stop-opacity:1"/><stop offset="0.910156" style="stop-color:#49b35e;stop-opacity:1"/><stop offset="0.914063" style="stop-color:#4bb45d;stop-opacity:1"/><stop offset="0.917969" style="stop-color:#4db45b;stop-opacity:1"/><stop offset="0.921875" style="stop-color:#4eb459;stop-opacity:1"/><stop offset="0.925781" style="stop-color:#50b457;stop-opacity:1"/><stop offset="0.929687" style="stop-color:#52b555;stop-opacity:1"/><stop offset="0.933594" style="stop-color:#54b554;stop-opacity:1"/><stop offset="0.9375" style="stop-color:#56b552;stop-opacity:1"/><stop offset="0.941406" style="stop-color:#57b550;stop-opacity:1"/><stop offset="0.945313" style="stop-color:#59b64e;stop-opacity:1"/><stop offset="0.949219" style="stop-color:#5ab64c;stop-opacity:1"/><stop offset="0.953125" style="stop-color:#5bb64a;stop-opacity:1"/><stop offset="0.957031" style="stop-color:#5db648;stop-opacity:1"/><stop offset="0.960938" style="stop-color:#5fb646;stop-opacity:1"/><stop offset="0.964844" style="stop-color:#60b744;stop-opacity:1"/><stop offset="0.96875" style="stop-color:#61b742;stop-opacity:1"/><stop offset="0.972656" style="stop-color:#63b740;stop-opacity:1"/><stop offset="0.976562" style="stop-color:#65b83e;stop-opacity:1"/><stop offset="0.980469" style="stop-color:#66b83c;stop-opacity:1"/><stop offset="0.984375" style="stop-color:#68b83a;stop-opacity:1"/><stop offset="0.988281" style="stop-color:#69b837;stop-opacity:1"/><stop offset="0.992188" style="stop-color:#6ab935;stop-opacity:1"/><stop offset="0.996094" style="stop-color:#6bb932;stop-opacity:1"/><stop offset="1" style="stop-color:#6cb930;stop-opacity:1"/></linearGradient><clipPath id="a"><path d="M136.309 267.715c-2.293.285-3.34 1.027-4.016 1.926.84.285 1.773.484 2.781.57h2.403c4.453-.387 7.453-2.914 7.453-5.973 0-.297-.028-.586-.082-.87-.168 3.91-6.035 4.034-8.54 4.347"/></clipPath></defs><path d="M-133.488 64.73h-20.115v59.77h20.115c17.63 0 29.021-11.754 29.021-29.9s-11.39-29.87-29.021-29.87m14.117 45.26c-3.393 3.756-8.27 5.695-14.511 5.695h-9.815v-42.26h9.815c12.39 0 19.51 7.725 19.51 21.175 0 6.422-1.728 11.754-5 15.39M-67.811 102.204h13.147l-.03.154c-1.364 8.997-7.362 14.42-15.996 14.42-10.845 0-18.146-8.907-18.146-22.176 0-6.331 1.667-11.784 4.847-15.752 3.212-4.06 7.665-6.21 12.906-6.21 7.27 0 11.784 3.271 14.571 10.572h9.906c-2.514-12.36-11.42-19.449-24.477-19.449-16.086 0-27.72 12.966-27.72 30.84 0 17.873 11.815 30.869 28.113 30.869 14.935 0 25.387-11.178 25.387-27.143v-4.545h-22.509zM-4.012 93.752l-.394-.132.394-.154C.683 91.8 3.713 86.862 3.713 80.894c0-10.3-7.362-16.177-20.206-16.177h-20.903v59.77h22.872c12.814 0 20.176-6.24 20.176-17.086 0-6.15-3.969-11.784-9.664-13.662m-23.781-20.51h11.209c7.27 0 10.784 2.697 10.784 8.24 0 5.636-3.635 8.483-10.784 8.483h-11.209zm13.057 42.745h-13.057V98.071h13.057c6.816 0 10.724 3.272 10.724 8.936 0 5.605-4.03 8.967-10.724 8.967M104.53 101.204V72.819h5.06V65.82H76.903v6.998h5.24v28.476h-5.15v7.058h21.449s6.3.088 14.753-1.363l-.879-6.755s-2.726.758-7.785.97M90.384 72.818h5.907v28.476h-5.907zM127.857 127.105h7.907v-65.01h-7.907zm0 0" style="fill:#003a82;fill-opacity:1;fill-rule:nonzero;stroke:none;stroke-width:7.75523" transform="translate(153.603 -44.494)"/><path d="M115.497 81.876h-7.089v7.18h7.09v38.05h7.936V62.094h-7.937zM190.172 127.105h8.3v-65.04h-8.3zM163.15 64.549c-11.149 0-18.813 9.27-18.813 22.356 0 13.118 7.664 22.388 18.812 22.388 11.118 0 18.783-9.27 18.783-22.388 0-13.087-7.665-22.356-18.783-22.356m0 37.655c-6.725 0-10.39-6.483-10.39-15.299 0-8.785 3.665-15.268 10.39-15.268 6.726 0 10.391 6.483 10.391 15.268 0 8.816-3.665 15.299-10.39 15.299M13.83 102.93H28.04v24.175h8.24v-24.174h12.147v24.174h8.12v-24.174h14.207v-6.998H13.831zM27.281 86.027c1.727 1.363 3.848 2.423 6.362 3.18 2.514.757 5.392 1.122 8.634 1.122 3.272 0 6.15-.363 8.664-1.121 2.484-.759 4.635-1.818 6.362-3.181 1.726-1.363 3.06-3 3.938-4.877.878-1.909 1.333-3.969 1.333-6.21 0-2.212-.455-4.242-1.333-6.12-.879-1.877-2.212-3.514-3.938-4.877-1.727-1.363-3.878-2.454-6.362-3.242-2.515-.787-5.392-1.182-8.664-1.182-3.242 0-6.12.393-8.634 1.182-2.514.787-4.635 1.878-6.362 3.242-1.757 1.363-3.06 2.999-3.938 4.877-.878 1.877-1.333 3.908-1.333 6.12 0 2.241.455 4.301 1.333 6.21.879 1.877 2.181 3.514 3.938 4.877m3.969-14.238c.515-.97 1.303-1.849 2.302-2.545 1-.697 2.242-1.242 3.696-1.666 1.484-.394 3.15-.605 5.029-.605 1.908 0 3.575.22 5.029.605 1.484.424 2.726.97 3.726 1.666a7.246 7.246 0 0 1 2.272 2.545c.515.97.758 1.998.758 3.15s-.243 2.212-.758 3.181c-.515.97-1.273 1.818-2.272 2.545-1 .697-2.242 1.242-3.726 1.635-1.455.394-3.12.576-5.03.576-1.877 0-3.544-.176-5.028-.576-1.454-.393-2.696-.938-3.696-1.635-1-.728-1.787-1.576-2.302-2.545-.515-.97-.758-2.029-.758-3.18 0-1.153.242-2.182.758-3.151" style="fill:#003a82;fill-opacity:1;fill-rule:nonzero;stroke:none;stroke-width:7.75523" transform="translate(153.603 -44.494)"/><path d="M294.504 44.494c-42.654 0-70.767 22.387-70.767 50.015 0 27.598 28.113 49.985 70.767 49.985 42.623 0 70.766-22.387 70.766-49.985 0-27.628-28.143-50.015-70.766-50.015" style="fill:#fff;fill-opacity:1;fill-rule:nonzero;stroke:none;stroke-width:7.75523" transform="translate(153.603 -44.494)"/><path d="M307.106 113.17c12.148-2.09 53.166-10.542 48.107-33.929-1.818-8.422-10.452-17.661-23.478-24.053-10.421-4.696-23.145-7.422-37.413-7.422-39.594 0-67.131 20.902-67.131 46.743 0 17.965 13.36 33.566 34.868 41.382 4.544-11.997 22.72-18.843 45.047-22.72" style="fill:#0073c2;fill-opacity:1;fill-rule:nonzero;stroke:none;stroke-width:7.75523" transform="translate(153.603 -44.494)"/><g clip-path="url(#a)" transform="matrix(7.75523 0 0 7.75523 -608.907 -1999.214)"><path d="M132.293 263.367v6.844h12.637v-6.844zm0 0" style="fill:url(#b);fill-rule:nonzero;stroke:none"/></g><path d="M256.121 70.092h-13.268l.151.394c.576 1.424.545 4.029.515 6.331-.03.545-.03 30.658-.03 30.658h.272c.062.022 6.029.242 11.724.242 11.845 0 19.812-8.059 19.812-19.994 0-10.724-7.513-17.631-19.176-17.631m-6.937 3.362c.758-.066 3.12-.242 4.786-.242 10.149 0 14.875 4.908 14.875 15.45 0 10.906-4.18 16.238-12.815 16.238-6.331 0-6.846-.334-6.846-4.06zM310.953 107.233c-.21-2.181-.303-3.696-.303-4.969V89.147h-6.301l.211.424c.03 0 .666 1.273.666 4 0 .087 0 9.118-.242 11.238-1.545.394-3.575.545-4.877.545-10.028 0-15.087-5.755-15.087-17.085 0-8.634 5.696-15.087 13.875-15.693 4.302-.303 8.452.88 11.057 3.151l.485.394v-5.302l-.242-.022c-2.575-.514-5.635-1.03-8.634-1.03-14.42 0-23.023 7.573-23.023 20.296 0 13.511 10.512 18.328 20.357 18.328 4.18 0 8.483-.304 11.815-.849l.273-.066zM333.462 86.966c3.605-.97 7.058-4.15 7.058-8.785 0-5.06-4.574-8.089-12.208-8.089h-11.36l.061.334c.03.022.333 1.515.333 4.938v32.445h.304c.03 0 4.453-.132 9.936-.132 9.543 0 15.026-4.12 15.026-11.36 0-4.453-3.696-8.21-9.149-9.36m-10.423 1.817h2.908c6.786 0 10.21 2.636 10.21 7.877 0 5.543-2.97 8.24-9.028 8.24-2.97 0-4.09-1.091-4.09-3.818zm0-15.753h3.726c5.817 0 8.33 1.757 8.33 5.908 0 4.695-3.059 6.907-9.663 6.907h-2.393zm0 0" style="fill:#fff;fill-opacity:1;fill-rule:nonzero;stroke:none;stroke-width:7.75523" transform="translate(153.603 -44.494)"/></svg>